<svg xmlns="http://www.w3.org/2000/svg" viewBox="0 0 24 24" width="16" height="16">
  <g class="jp-icon3" fill="#616161">
    <path d="M12 2a10 10 0 1 0 0 20 10 10 0 0 0 0-20zm0 1.8a8.2 8.2 0 0 1 8.2 8.2c0 .5-.05 1-.14 1.48-1.02-2.2-2.9-3.3-5.2-3.62-1.95-.27-3.16-.66-3.86-1.36-.6-.6-.86-1.45-.95-2.66-.06-.78-.07-1.6-.6-2.18A8.2 8.2 0 0 1 12 3.8zM5.3 7.2c.55.2.92.62 1.2 1.3.5 1.2.5 2.5.86 3.74.5 1.74 1.6 3 3.3 3.78 1.5.7 2.3 1.4 2.66 2.34.2.52.26 1.1.26 1.77a8.2 8.2 0 0 1-8.34-13z"/>
  </g>
</svg>
